<svg width="59" height="59" viewBox="0 0 59 59" fill="none" xmlns="http://www.w3.org/2000/svg">
<path d="M35.6457 15.9792C37.4579 16.3327 39.2568 17.1319 40.5623 18.4375C41.8679 19.7431 42.6671 21.542 43.0207 23.3542M36.8748 7.375C40.6399 7.79326 44.0279 9.61471 46.7082 12.2917C49.3885 14.9686 51.2019 18.3605 51.6249 22.125M51.6235 40.5051V47.1666C51.6339 49.7131 49.3442 51.8395 46.7732 51.6077C24.5833 51.625 7.375 34.2568 7.39237 12.2159C7.16082 9.65866 9.27671 7.37761 11.8199 7.37522H18.4947C19.5744 7.36461 20.6212 7.74621 21.4399 8.4489C23.7675 10.4467 25.2646 17.2274 24.6886 19.923C24.2389 22.0276 22.1174 23.4999 20.6751 24.9394C23.8423 30.4985 28.4543 35.1014 34.0245 38.2624C35.4668 36.823 36.9421 34.7057 39.0508 34.2568C41.7559 33.6811 48.5803 35.1803 50.5701 37.5241C51.2757 38.3552 51.6506 39.4161 51.6235 40.5051Z" stroke="#C0B7E8" stroke-width="6" stroke-linecap="round" stroke-linejoin="round"/>
</svg>
