<svg width="197" height="203" viewBox="0 0 197 203" fill="none" xmlns="http://www.w3.org/2000/svg">
<g clip-path="url(#clip0_13_47)" filter="url(#filter0_d_13_47)">
<path d="M188.774 74.9048C191.197 88.9167 176.331 85.1845 176.331 85.1845C170.11 67.6369 160.156 69.2738 160.156 69.2738C167.949 74.9703 168.538 79.8155 168.538 79.8155C147.779 65.0834 119.554 76.9345 108.814 82.5C102.789 73.9881 90.6089 54.9345 94.9311 46.2917C100.628 34.9643 112.22 41.4464 112.22 41.4464C135.664 41.0536 134.354 32.6726 134.354 32.6726C128.133 37.5179 109.797 32.6726 109.797 32.6726C125.71 32.6726 132.455 26.1905 132.455 26.1905C120.602 29.1369 107.374 16.5 107.374 16.5C102.528 -8.31546 80.1311 2.22621 80.1311 2.22621C94.1452 -0.196409 90.4125 14.6667 90.4125 14.6667C72.862 20.8869 74.4992 30.8393 74.4992 30.8393C80.1965 23.0476 85.0426 22.4584 85.0426 22.4584C68.9983 45.0476 84.4532 76.4762 89.0373 84.6607C80.655 90.4881 61.0089 103.321 52.1682 98.8691C40.839 93.1726 47.3222 81.5834 47.3222 81.5834C47.0603 58.1429 38.678 59.4524 38.678 59.4524C43.524 65.6726 38.678 84.006 38.678 84.006C38.678 68.0953 32.1948 61.3512 32.1948 61.3512C35.1417 73.2024 22.5027 86.4286 22.5027 86.4286C-2.31674 91.2738 8.22663 113.667 8.22663 113.667C5.80362 99.6548 20.6691 103.387 20.6691 103.387C26.8903 120.935 36.8443 119.298 36.8443 119.298C29.0514 113.601 28.462 108.756 28.462 108.756C50.4001 124.339 80.7204 110.196 89.8886 105.22C96.0443 114.06 107.505 132.262 103.248 140.708C97.5505 152.036 85.9594 145.554 85.9594 145.554C62.5151 145.815 63.8249 154.196 63.8249 154.196C70.0461 149.351 88.3824 154.196 88.3824 154.196C72.4691 154.196 65.724 160.679 65.724 160.679C77.5771 157.732 90.8054 170.369 90.8054 170.369C95.6514 195.185 118.048 184.643 118.048 184.643C104.034 187.065 107.766 172.202 107.766 172.202C125.317 165.982 123.68 156.03 123.68 156.03C117.982 163.821 113.136 164.411 113.136 164.411C128.853 142.345 114.381 111.768 109.469 102.798C118.375 96.5774 136.384 85.4464 144.701 89.6369C156.03 95.3333 149.547 106.923 149.547 106.923C149.809 130.363 158.191 129.054 158.191 129.054C153.345 122.833 158.191 104.5 158.191 104.5C158.191 120.411 164.674 127.155 164.674 127.155C161.728 115.304 174.366 102.077 174.366 102.077C199.317 97.2976 188.774 74.9048 188.774 74.9048Z" fill="url(#paint0_linear_13_47)"/>
</g>
<defs>
<filter id="filter0_d_13_47" x="0" y="0" width="197" height="203" filterUnits="userSpaceOnUse" color-interpolation-filters="sRGB">
<feFlood flood-opacity="0" result="BackgroundImageFix"/>
<feColorMatrix in="SourceAlpha" type="matrix" values="0 0 0 0 0 0 0 0 0 0 0 0 0 0 0 0 0 0 127 0" result="hardAlpha"/>
<feOffset dy="10"/>
<feGaussianBlur stdDeviation="3"/>
<feComposite in2="hardAlpha" operator="out"/>
<feColorMatrix type="matrix" values="0 0 0 0 0 0 0 0 0 0 0 0 0 0 0 0 0 0 0.25 0"/>
<feBlend mode="normal" in2="BackgroundImageFix" result="effect1_dropShadow_13_47"/>
<feBlend mode="normal" in="SourceGraphic" in2="effect1_dropShadow_13_47" result="shape"/>
</filter>
<linearGradient id="paint0_linear_13_47" x1="98.4938" y1="0.00195312" x2="98.4938" y2="186.867" gradientUnits="userSpaceOnUse">
<stop stop-color="#C0B7E8"/>
<stop offset="1" stop-color="#8176AF"/>
</linearGradient>
<clipPath id="clip0_13_47">
<rect width="185" height="187" fill="white" transform="translate(6)"/>
</clipPath>
</defs>
</svg>
