<svg width="69" height="61" viewBox="0 0 69 61" fill="none" xmlns="http://www.w3.org/2000/svg">
<path d="M68.1749 24.6688C69.0787 29.1592 63.5338 27.9631 63.5338 27.9631C61.2132 22.3397 57.5003 22.8642 57.5003 22.8642C60.4071 24.6898 60.627 26.2425 60.627 26.2425C52.8836 21.5213 42.3556 25.3193 38.3496 27.1028C36.1023 24.375 31.5589 18.2689 33.1711 15.4992C35.2962 11.8691 39.6198 13.9464 39.6198 13.9464C48.3647 13.8205 47.8761 11.1347 47.8761 11.1347C45.5556 12.6874 38.716 11.1347 38.716 11.1347C44.6518 11.1347 47.1677 9.05737 47.1677 9.05737C42.7465 10.0016 37.8122 5.95188 37.8122 5.95188C36.0046 -2.00071 27.6506 1.37757 27.6506 1.37757C32.878 0.601196 31.4856 5.36435 31.4856 5.36435C24.9392 7.35775 25.5499 10.5472 25.5499 10.5472C27.675 8.05019 29.4826 7.86134 29.4826 7.86134C23.498 15.1005 29.2628 25.1724 30.9727 27.7953C27.846 29.6628 20.5179 33.7754 17.2203 32.3486C12.9944 30.5231 15.4127 26.8091 15.4127 26.8091C15.315 19.2971 12.1883 19.7168 12.1883 19.7168C13.9959 21.7102 12.1883 27.5854 12.1883 27.5854C12.1883 22.4865 9.77006 20.3253 9.77006 20.3253C10.8693 24.1232 6.15487 28.3618 6.15487 28.3618C-3.10295 29.9146 0.829795 37.0908 0.829795 37.0908C-0.0740021 32.6004 5.47092 33.7964 5.47092 33.7964C7.79148 39.4199 11.5044 38.8953 11.5044 38.8953C8.59757 37.0698 8.37773 35.517 8.37773 35.517C16.5608 40.511 27.8704 35.9787 31.2902 34.3839C33.5863 37.2167 37.8611 43.05 36.2733 45.7568C34.1482 49.3868 29.8246 47.3095 29.8246 47.3095C21.0797 47.3935 21.5683 50.0793 21.5683 50.0793C23.8888 48.5265 30.7284 50.0793 30.7284 50.0793C24.7926 50.0793 22.2767 52.1566 22.2767 52.1566C26.6979 51.2124 31.6322 55.2621 31.6322 55.2621C33.4398 63.2147 41.7938 59.8364 41.7938 59.8364C36.5664 60.6128 37.9588 55.8496 37.9588 55.8496C44.5052 53.8562 43.8945 50.6668 43.8945 50.6668C41.7694 53.1638 39.9618 53.3526 39.9618 53.3526C45.8243 46.2814 40.4259 36.4823 38.5939 33.6076C41.9159 31.6142 48.6334 28.0471 51.7356 29.39C55.9614 31.2155 53.5432 34.9295 53.5432 34.9295C53.6409 42.4414 56.7675 42.0218 56.7675 42.0218C54.9599 40.0284 56.7675 34.1531 56.7675 34.1531C56.7675 39.252 59.1858 41.4133 59.1858 41.4133C58.0866 37.6153 62.801 33.3768 62.801 33.3768C72.1077 31.845 68.1749 24.6688 68.1749 24.6688Z" fill="url(#paint0_linear_13_79)"/>
<defs>
<linearGradient id="paint0_linear_13_79" x1="34.5" y1="0.664764" x2="34.5" y2="60.5492" gradientUnits="userSpaceOnUse">
<stop stop-color="#C0B7E8"/>
<stop offset="1" stop-color="#8176AF"/>
</linearGradient>
</defs>
</svg>
